<svg xmlns="http://www.w3.org/2000/svg" width="1920" height="906" viewBox="0 0 1920 906">
  <defs>
    <linearGradient id="header-a" x1="50%" x2="50%" y1="-31.323%" y2="161.751%">
      <stop offset="0%" stop-color="#4D19B0"/>
      <stop offset="100%" stop-color="#8A5CFF"/>
    </linearGradient>
    <linearGradient id="header-b" x1="50%" x2="50%" y1="-31.323%" y2="161.751%">
      <stop offset="0%" stop-color="#4D19B0"/>
      <stop offset="100%" stop-color="#8A5CFF"/>
    </linearGradient>
    <linearGradient id="header-c" x1="59.7%" x2="55.707%" y1="56.025%" y2="39.742%">
      <stop offset="0%" stop-color="#FFF" stop-opacity="0"/>
      <stop offset="100%" stop-color="#FFF" stop-opacity=".12"/>
    </linearGradient>
  </defs>
  <g fill="none">
    <path fill="url(#header-a)" d="M0,906 C29.658411,809.02936 128.36748,736.825222 296.127206,689.387586 C547.766796,618.231132 752.186667,815.317671 1017.99603,722.680272 C1283.80539,630.042873 1181.4213,469.701691 1343.07334,386.862948 C1486.29943,313.466605 1700.94861,362.818508 1789.54482,323.554989 C1876.51494,285.012109 1920,177.160446 1920,0 L1896.10354,0 L0,0 L0,906 Z" opacity=".07"/>
    <path fill="url(#header-b)" d="M1920,0 L1919.881,16.1166386 L1919.74912,20.0207029 C1913.0458,175.711388 1772.01224,264.746601 1496.64845,287.126343 L1487.90809,287.810915 C1467.05746,289.383113 1447.47541,291.618066 1429.06062,294.46002 C1059.53995,351.488142 1219.61514,573.075192 1011.94367,641.91074 C804.272203,710.746288 690.121099,621.370921 387.982212,652.836121 C259.396192,666.227263 78.1302076,737.000463 0.505370938,879 L0,0 L1920,0 Z"/>
    <path fill="url(#header-c)" d="M1920,0 L1919.881,16.1166386 L1919.74912,20.0207029 C1913.0458,175.711388 1772.01224,264.746601 1496.64845,287.126343 L1487.90809,287.810915 C1467.05746,289.383113 1447.47541,291.618066 1429.06062,294.46002 C1059.53995,351.488142 1219.61514,573.075192 1011.94367,641.91074 C993.989054,647.862043 976.733482,652.630754 959.995031,656.397209 C943.265832,652.630565 926.010589,647.861925 908.05633,641.91074 C700.384863,573.075192 860.46005,351.488142 490.93938,294.46002 C473.182264,291.719564 454.339768,289.543527 434.321053,287.981898 L432.091906,287.810915 L423.351555,287.126343 C150.741397,264.970399 9.7883053,177.485427 0.492279481,24.6714268 L0.2508808,20.0207029 L0.119,16.1166386 L0,0 L1920,0 Z"/>
  </g>
</svg>
